<svg width="8" height="9" viewBox="0 0 8 9" fill="none" xmlns="http://www.w3.org/2000/svg">
<path d="M3.1157 4.02943C3.1157 4.33073 3.23663 4.6197 3.45189 4.83275C3.66714 5.0458 3.95909 5.1655 4.26351 5.1655C4.56792 5.1655 4.85987 5.0458 5.07513 4.83275C5.29038 4.6197 5.41131 4.33073 5.41131 4.02943C5.41131 3.72812 5.29038 3.43916 5.07513 3.2261C4.85987 3.01305 4.56792 2.89336 4.26351 2.89336C3.95909 2.89336 3.66714 3.01305 3.45189 3.2261C3.23663 3.43916 3.1157 3.72812 3.1157 4.02943Z" stroke="#3E3E42" stroke-linecap="round" stroke-linejoin="round"/>
<path d="M6.42788 6.17166L4.80451 7.77844C4.66103 7.92031 4.46651 8 4.2637 8C4.06089 8 3.86637 7.92031 3.72289 7.77844L2.09913 6.17166C1.67109 5.74797 1.37959 5.20816 1.2615 4.62049C1.14341 4.03283 1.20403 3.4237 1.4357 2.87014C1.66737 2.31657 2.05969 1.84344 2.56303 1.51056C3.06637 1.17767 3.65814 1 4.26351 1C4.86887 1 5.46064 1.17767 5.96399 1.51056C6.46733 1.84344 6.85964 2.31657 7.09131 2.87014C7.32298 3.4237 7.38361 4.03283 7.26552 4.62049C7.14743 5.20816 6.85593 5.74797 6.42788 6.17166Z" stroke="#3E3E42" stroke-linecap="round" stroke-linejoin="round"/>
</svg>
