<svg width="17" height="19" viewBox="0 0 17 19" fill="none" xmlns="http://www.w3.org/2000/svg">
<path d="M2.66225 6.34433H9.72681C10.1128 6.35215 10.4932 6.24595 10.8254 6.03764C11.1576 5.82933 11.4284 5.52714 11.6074 5.16498C11.7865 4.80282 11.8667 4.39501 11.839 3.98728C11.8114 3.57955 11.677 3.18804 11.451 2.85665C11.225 2.52527 10.9162 2.26712 10.5593 2.11116C10.2025 1.95519 9.81161 1.90759 9.43062 1.97368C9.04963 2.03977 8.69356 2.21695 8.40236 2.48533C8.11115 2.75372 7.89633 3.1027 7.78198 3.49313M1 9.86433H13.8824C14.2684 9.85651 14.6489 9.96271 14.981 10.171C15.3132 10.3793 15.584 10.6815 15.7631 11.0437C15.9421 11.4058 16.0223 11.8137 15.9947 12.2214C15.967 12.6291 15.8327 13.0206 15.6066 13.352C15.3806 13.6834 15.0718 13.9415 14.7149 14.0975C14.3581 14.2535 13.9672 14.3011 13.5862 14.235C13.2053 14.1689 12.8492 13.9917 12.558 13.7233C12.2668 13.4549 12.052 13.106 11.9376 12.7155M1.83113 13.3843H6.40231C6.78831 13.3765 7.16874 13.4827 7.50092 13.691C7.8331 13.8993 8.1039 14.2015 8.28294 14.5637C8.46198 14.9258 8.54218 15.3337 8.51455 15.7414C8.48692 16.1491 8.35254 16.5406 8.1265 16.872C7.90046 17.2034 7.59169 17.4615 7.23482 17.6175C6.87796 17.7735 6.48711 17.8211 6.10612 17.755C5.72513 17.6889 5.36906 17.5117 5.07785 17.2433C4.78665 16.9749 4.57183 16.626 4.45748 16.2355" stroke="#2693C9" stroke-width="2" stroke-linecap="round" stroke-linejoin="round"/>
</svg>
