<svg width="18" height="20" viewBox="0 0 18 20" fill="none" xmlns="http://www.w3.org/2000/svg">
<path d="M1 10.3693C1 11.4744 1.20693 12.5686 1.60896 13.5895C2.011 14.6104 2.60028 15.538 3.34315 16.3193C4.08601 17.1007 4.96793 17.7205 5.93853 18.1434C6.90914 18.5663 7.94943 18.7839 9 18.7839M1 10.3693C1 9.26433 1.20693 8.17013 1.60896 7.14923C2.011 6.12832 2.60028 5.20071 3.34315 4.41934C4.08601 3.63798 4.96793 3.01817 5.93853 2.59529C6.90914 2.17242 7.94943 1.95477 9 1.95477M1 10.3693H2.77778M9 18.7839C10.0506 18.7839 11.0909 18.5663 12.0615 18.1434C13.0321 17.7205 13.914 17.1007 14.6569 16.3193C15.3997 15.538 15.989 14.6104 16.391 13.5895C16.7931 12.5686 17 11.4744 17 10.3693M9 18.7839V16.914M17 10.3693C17 9.26433 16.7931 8.17013 16.391 7.14923C15.989 6.12832 15.3997 5.20071 14.6569 4.41934C13.914 3.63798 13.0321 3.01817 12.0615 2.59529C11.0909 2.17242 10.0506 1.95477 9 1.95477M17 10.3693H15.2222M9 1.95477V3.82468M5.44444 14.1092L7.22222 8.49944L12.5556 6.62954L10.7778 12.2393L5.44444 14.1092Z" stroke="#2693C9" stroke-width="2" stroke-linecap="round" stroke-linejoin="round"/>
</svg>
