<svg width="15" height="18" viewBox="0 0 15 18" fill="none" xmlns="http://www.w3.org/2000/svg">
<path d="M5.0625 8.28562C5.0625 8.92478 5.31931 9.53777 5.77642 9.98973C6.23354 10.4417 6.85353 10.6956 7.5 10.6956C8.14646 10.6956 8.76645 10.4417 9.22357 9.98973C9.68069 9.53777 9.9375 8.92478 9.9375 8.28562C9.9375 7.64646 9.68069 7.03347 9.22357 6.58151C8.76645 6.12956 8.14646 5.87565 7.5 5.87565C6.85353 5.87565 6.23354 6.12956 5.77642 6.58151C5.31931 7.03347 5.0625 7.64646 5.0625 8.28562Z" stroke="#2693C9" stroke-width="2" stroke-linecap="round" stroke-linejoin="round"/>
<path d="M12.0963 12.83L8.64887 16.2385C8.34418 16.5395 7.9311 16.7085 7.50041 16.7085C7.06971 16.7085 6.65664 16.5395 6.35194 16.2385L2.90369 12.83C1.99468 11.9312 1.37565 10.7861 1.12487 9.53951C0.874097 8.29288 1.00284 7.00073 1.49482 5.82644C1.9868 4.65216 2.81992 3.64848 3.88883 2.94233C4.95774 2.23619 6.21444 1.85928 7.5 1.85928C8.78556 1.85928 10.0423 2.23619 11.1112 2.94233C12.1801 3.64848 13.0132 4.65216 13.5052 5.82644C13.9972 7.00073 14.1259 8.29288 13.8751 9.53951C13.6243 10.7861 13.0053 11.9312 12.0963 12.83Z" stroke="#2693C9" stroke-width="2" stroke-linecap="round" stroke-linejoin="round"/>
</svg>
