<svg width="60" height="60" viewBox="0 0 60 60" fill="none" xmlns="http://www.w3.org/2000/svg">
<path d="M37.3684 16.7368H37.3979M30 55.0526H10.8421C8.49703 55.0526 6.24801 54.1211 4.58979 52.4628C2.93158 50.8046 2 48.5556 2 46.2105V10.8421C2 8.49703 2.93158 6.24801 4.58979 4.58979C6.24801 2.93158 8.49703 2 10.8421 2H46.2105C48.5556 2 50.8046 2.93158 52.4628 4.58979C54.1211 6.24801 55.0526 8.49703 55.0526 10.8421V30M2 40.3153L16.7368 25.5784C19.472 22.9464 22.8438 22.9464 25.5789 25.5784L37.3684 37.3679M34.4211 34.4209L37.3684 31.4736C39.3432 29.5755 41.6421 29.0449 43.7996 29.882M40.3158 49.1579H58M49.1579 40.3158V58" stroke="#2693C9" stroke-width="4" stroke-linecap="round" stroke-linejoin="round"/>
</svg>
